<svg width="198" height="187" viewBox="0 0 198 187" fill="none" xmlns="http://www.w3.org/2000/svg">
<rect width="198" height="187" fill="#F5F5F5"/>
<rect width="198" height="187" fill="black"/>
<path d="M155.766 77.0909V120H146.967L129.891 95.2351H129.619V120H119.248V77.0909H128.173L145.06 101.814H145.416V77.0909H155.766ZM128.529 165H117.383L131.86 122.091H145.668L160.145 165H148.999L138.921 132.902H138.586L128.529 165ZM127.042 148.113H150.34V155.991H127.042V148.113Z" fill="white"/>
<path d="M155.766 77.0909H156.766V76.0909H155.766V77.0909ZM155.766 120V121H156.766V120H155.766ZM146.967 120L146.143 120.568L146.441 121H146.967V120ZM129.891 95.2351L130.714 94.6674L130.416 94.2351H129.891V95.2351ZM129.619 95.2351V94.2351H128.619V95.2351H129.619ZM129.619 120V121H130.619V120H129.619ZM119.248 120H118.248V121H119.248V120ZM119.248 77.0909V76.0909H118.248V77.0909H119.248ZM128.173 77.0909L128.999 76.5269L128.701 76.0909H128.173V77.0909ZM145.06 101.814L144.234 102.378L144.532 102.814H145.06V101.814ZM145.416 101.814V102.814H146.416V101.814H145.416ZM145.416 77.0909V76.0909H144.416V77.0909H145.416ZM154.766 77.0909V120H156.766V77.0909H154.766ZM155.766 119H146.967V121H155.766V119ZM147.79 119.432L130.714 94.6674L129.068 95.8027L146.143 120.568L147.79 119.432ZM129.891 94.2351H129.619V96.2351H129.891V94.2351ZM128.619 95.2351V120H130.619V95.2351H128.619ZM129.619 119H119.248V121H129.619V119ZM120.248 120V77.0909H118.248V120H120.248ZM119.248 78.0909H128.173V76.0909H119.248V78.0909ZM127.347 77.6549L144.234 102.378L145.886 101.25L128.999 76.5269L127.347 77.6549ZM145.06 102.814H145.416V100.814H145.06V102.814ZM146.416 101.814V77.0909H144.416V101.814H146.416ZM145.416 78.0909H155.766V76.0909H145.416V78.0909ZM128.529 165V166H129.264L129.483 165.299L128.529 165ZM117.383 165L116.435 164.68L115.99 166H117.383V165ZM131.86 122.091V121.091H131.142L130.913 121.771L131.86 122.091ZM145.668 122.091L146.615 121.771L146.386 121.091H145.668V122.091ZM160.145 165V166H161.538L161.093 164.68L160.145 165ZM148.999 165L148.045 165.3L148.265 166H148.999V165ZM138.921 132.902L139.875 132.602L139.655 131.902H138.921V132.902ZM138.586 132.902V131.902H137.851L137.632 132.603L138.586 132.902ZM127.042 148.113V147.113H126.042V148.113H127.042ZM150.34 148.113H151.34V147.113H150.34V148.113ZM150.34 155.991V156.991H151.34V155.991H150.34ZM127.042 155.991H126.042V156.991H127.042V155.991ZM128.529 164H117.383V166H128.529V164ZM118.33 165.32L132.808 122.411L130.913 121.771L116.435 164.68L118.33 165.32ZM131.86 123.091H145.668V121.091H131.86V123.091ZM144.72 122.411L159.198 165.32L161.093 164.68L146.615 121.771L144.72 122.411ZM160.145 164H148.999V166H160.145V164ZM149.953 164.7L139.875 132.602L137.967 133.202L148.045 165.3L149.953 164.7ZM138.921 131.902H138.586V133.902H138.921V131.902ZM137.632 132.603L127.575 164.701L129.483 165.299L139.54 133.201L137.632 132.603ZM127.042 149.113H150.34V147.113H127.042V149.113ZM149.34 148.113V155.991H151.34V148.113H149.34ZM150.34 154.991H127.042V156.991H150.34V154.991ZM128.042 155.991V148.113H126.042V155.991H128.042Z" fill="black"/>
</svg>
